<svg xmlns="http://www.w3.org/2000/svg" width="110.13" height="110.13"><defs><style>.cls-2,.cls-4{fill:#fafbfc;stroke:#081f4d;stroke-linecap:round;stroke-linejoin:round}.cls-4{fill:#f8fcff}</style></defs><g id="Map_icon_active"><g id="trait_rond_bg" transform="translate(-45.602 -25.727)"><circle id="Ellipse_440" cx="55.065" cy="55.065" r="55.065" transform="translate(45.602 25.727)" style="isolation:isolate" fill="#d8e0ea" opacity=".154"/></g><g id="Groupe_19920" transform="translate(-45.602 -25.727)"><path id="Ligne_2357" d="M0 0h83.636" class="cls-2" transform="translate(59.486 126.955)"/><path id="Ligne_2358" d="M0 0h1.614" class="cls-2" transform="translate(53.695 126.955)"/><path id="Ligne_2359" d="M0 0h2.579" class="cls-2" transform="translate(147.049 126.955)"/></g><g id="Groupe_19921" transform="translate(-45.602 -25.727)"><path id="Tracé_17348" d="M62.052 108.039V51.395l5.83 1.149 20.58 4.07v70.342l-2.1-.411-24.312-4.808v-7.115" class="cls-4"/><path id="Tracé_17349" d="M141.271 56.613v70.342l-26.4-5.219V51.395z" class="cls-4"/><path id="Tracé_17350" d="M114.872 51.395v70.342l-21.645 4.28-4.765.938V56.613z" class="cls-4"/><path id="Tracé_17351" fill="#fff" stroke="#081f4d" stroke-linecap="round" stroke-linejoin="round" d="M141.271 84.805l-10.353 3.764 10.353 9.446v7.444a3.186 3.186 0 01-2.13-.823L124.192 91l-8.245 2.984a3.195 3.195 0 01-2.615-.2l-5.84-3.248-14.265 35.481-4.765.938V120.9l13.463-33.463-13.463-7.471-.3-.169L63.1 88.474a3.011 3.011 0 01-1.043.169v-6.5l20.442-7.075-20.447-19.319V51.4l5.83 1.149L88.462 72l1.887 1.782 24.523 13.632.274.148 25.05-9.088a3.2 3.2 0 011.075-.19z"/></g><path id="Tracé_17352" fill="#1e96fc" stroke="#081f4d" stroke-linecap="round" stroke-linejoin="round" d="M147.788 53.209c0 8.8-12.917 26.492-17.855 32.178a2.47 2.47 0 01-3.747 0c-4.938-5.686-17.832-23.382-17.832-32.178a19.716 19.716 0 0138.1-7.128" transform="translate(-45.602 -25.727)"/><path id="Tracé_17353" d="M144.045 53.951a14.225 14.225 0 11-14.24-14.23 14.25 14.25 0 0114.24 14.23z" transform="translate(-45.602 -25.727)" style="mix-blend-mode:multiply;isolation:isolate" fill="#d4deea"/><path id="Tracé_17354" d="M128.058 65.373a13.235 13.235 0 1113.235-13.234 13.225 13.225 0 01-13.235 13.234z" class="cls-2" transform="translate(-45.602 -25.727)"/><path id="Tracé_17355" fill="#ffc300" stroke="#081f4d" stroke-linecap="round" stroke-linejoin="round" d="M123.189 50.378l4.464-4.47.51-.193.369.193 4.611 4.742v5.06l-.7 1.021-.809.369h-1.81s-.07-4.153-.179-4.5a1.082 1.082 0 00-.563-.545l-2.129.035-.493.669-.07 4.223-2.13.123-.58-.334-.487-.51-.235-.827z" transform="translate(-45.602 -25.727)"/></g></svg>