<svg xmlns="http://www.w3.org/2000/svg" id="Myself" width="110" height="110"><defs><style>.cls-3,.cls-6{stroke:#253251;stroke-linecap:round;stroke-linejoin:round}.cls-3{fill:#fff}.cls-6{fill:none}</style></defs><g id="Groupe_18188" transform="translate(-264.478 -168.817)"><g id="Groupe_17781"><circle id="Ellipse_435" cx="55" cy="55" r="55" transform="translate(264.478 168.817)" style="isolation:isolate" fill="#d8e0ea" opacity=".154"/></g></g><g id="Groupe_18315" transform="translate(-264.478 -168.817)"><g id="Groupe_18313-2"><path id="Tracé_11540" fill="#f9fbfc" stroke="#253251" stroke-linecap="round" stroke-linejoin="round" d="M352.858 264.258v4.509h-67.3v-15.088c0-8.656 7.013-13.728 15.659-13.728H311.4c-1.771 20.675 16.921 20.527 16.346 0h9.454c8.647 0 15.66 5.072 15.66 13.728v5.221"/><path id="Tracé_11541" d="M328.946 226.8c-2.521 5.621-1.867 12.12 0 20.289-6.552 3.989-12.791 3.887-18.671 0 1.964-7.446 2.271-13.629 0-20.289z" class="cls-3"/><path id="Tracé_11542" d="M333.054 219.763c0 10.6-6.108 18.234-13.643 18.234s-13.623-7.632-13.623-18.234.532-20.267 13.623-21.132c7.52-.496 13.643 10.529 13.643 21.132z" class="cls-3"/><path id="Tracé_11543" fill="#1e96fc" stroke="#081f4d" stroke-linecap="round" stroke-linejoin="round" d="M332.911 216.97c5.8-11.169-.7-17.781-.7-17.781-8.42-9.175-16.923-4.333-19.5-2.485a4.876 4.876 0 01-1.736.809c-14.68 3.41-4.968 19.729-4.968 19.729s-.241-11.653 6.1-13.344c0 0 2.839 4.106 10.566 4.348 0 0 6.46-.725 8.12 3.593z"/><path id="Tracé_11544" fill="#ffc300" stroke="#253251" stroke-miterlimit="10" d="M308.6 245.77a29.8 29.8 0 0021.221 0l-6.783 23h-7.029z"/><path id="Tracé_11545" d="M302.808 239.952h8.211l5.434 28.817-12.981-19.622 2.657-2.9z" class="cls-3"/><path id="Tracé_11546" d="M336.167 239.952h-8.211l-5.434 28.817 12.978-19.622-2.657-2.9z" class="cls-3"/></g><g id="Groupe_18314"><path id="Ligne_347" d="M0 0h83.637" class="cls-6" transform="translate(277.303 268.9)"/><path id="Ligne_348" d="M0 0h1.614" class="cls-6" transform="translate(271.511 268.9)"/><path id="Ligne_349" d="M0 0h2.579" class="cls-6" transform="translate(364.866 268.9)"/></g></g></svg>